<mxfile host="Electron" agent="Mozilla/5.0 (Windows NT 10.0; Win64; x64) AppleWebKit/537.36 (KHTML, like Gecko) draw.io/26.0.9 Chrome/128.0.6613.186 Electron/32.2.5 Safari/537.36" version="26.0.9">
  <diagram name="Page-1" id="74e2e168-ea6b-b213-b513-2b3c1d86103e">
    <mxGraphModel dx="4100" dy="1774" grid="1" gridSize="10" guides="1" tooltips="1" connect="1" arrows="1" fold="1" page="1" pageScale="1" pageWidth="1100" pageHeight="850" background="none" math="0" shadow="0">
      <root>
        <mxCell id="0" />
        <mxCell id="1" parent="0" />
        <mxCell id="hF90CGsqE_X16s34exra-2" style="edgeStyle=orthogonalEdgeStyle;rounded=0;orthogonalLoop=1;jettySize=auto;html=1;entryX=0;entryY=0.5;entryDx=0;entryDy=0;exitX=1;exitY=0.5;exitDx=0;exitDy=0;" parent="1" source="hF90CGsqE_X16s34exra-3" target="hF90CGsqE_X16s34exra-7" edge="1">
          <mxGeometry relative="1" as="geometry" />
        </mxCell>
        <mxCell id="hF90CGsqE_X16s34exra-3" value="&lt;font style=&quot;font-size: 27px;&quot;&gt;Unterschiede/ Differences&lt;/font&gt;" style="rounded=1;whiteSpace=wrap;html=1;sketch=1;curveFitting=1;jiggle=2;fillColor=#a0522d;fontColor=#33001A;strokeColor=#6D1F00;fontStyle=1" parent="1" vertex="1">
          <mxGeometry x="-450" y="30" width="220" height="60" as="geometry" />
        </mxCell>
        <mxCell id="hF90CGsqE_X16s34exra-4" style="edgeStyle=orthogonalEdgeStyle;rounded=0;orthogonalLoop=1;jettySize=auto;html=1;exitX=0.5;exitY=1;exitDx=0;exitDy=0;" parent="1" source="hF90CGsqE_X16s34exra-6" target="hF90CGsqE_X16s34exra-12" edge="1">
          <mxGeometry relative="1" as="geometry" />
        </mxCell>
        <mxCell id="hF90CGsqE_X16s34exra-6" value="&lt;span style=&quot;font-size: 27px;&quot;&gt;Unabhängige Stichproben/ Independent Samples&lt;/span&gt;" style="ellipse;whiteSpace=wrap;html=1;sketch=1;curveFitting=1;jiggle=2;" parent="1" vertex="1">
          <mxGeometry x="-795" y="300" width="360" height="110" as="geometry" />
        </mxCell>
        <mxCell id="hF90CGsqE_X16s34exra-7" value="&lt;font style=&quot;font-size: 27px;&quot;&gt;Proportionen/&lt;br&gt;Proportions&lt;/font&gt;" style="ellipse;whiteSpace=wrap;html=1;sketch=1;curveFitting=1;jiggle=2;" parent="1" vertex="1">
          <mxGeometry x="-20" y="20" width="240" height="80" as="geometry" />
        </mxCell>
        <mxCell id="hF90CGsqE_X16s34exra-8" style="edgeStyle=orthogonalEdgeStyle;rounded=0;orthogonalLoop=1;jettySize=auto;html=1;exitX=0.5;exitY=1;exitDx=0;exitDy=0;entryX=0.5;entryY=0;entryDx=0;entryDy=0;" parent="1" source="hF90CGsqE_X16s34exra-11" target="hF90CGsqE_X16s34exra-13" edge="1">
          <mxGeometry relative="1" as="geometry" />
        </mxCell>
        <mxCell id="hF90CGsqE_X16s34exra-9" value="" style="edgeStyle=orthogonalEdgeStyle;rounded=0;orthogonalLoop=1;jettySize=auto;html=1;" parent="1" source="hF90CGsqE_X16s34exra-11" target="hF90CGsqE_X16s34exra-13" edge="1">
          <mxGeometry relative="1" as="geometry" />
        </mxCell>
        <mxCell id="hF90CGsqE_X16s34exra-11" value="&lt;span style=&quot;font-size: 27px;&quot;&gt;Abhängige Stichproben/ Dependent Samples&lt;/span&gt;" style="ellipse;whiteSpace=wrap;html=1;sketch=1;curveFitting=1;jiggle=2;" parent="1" vertex="1">
          <mxGeometry x="-250" y="300" width="350" height="110" as="geometry" />
        </mxCell>
        <mxCell id="hF90CGsqE_X16s34exra-12" value="&lt;span style=&quot;font-size: 27px;&quot;&gt;t-Test&amp;nbsp;&lt;/span&gt;&lt;div&gt;&lt;span style=&quot;font-size: 27px;&quot;&gt;(independent samples)&lt;/span&gt;&lt;/div&gt;" style="rounded=0;whiteSpace=wrap;html=1;sketch=1;curveFitting=1;jiggle=2;fillColor=#ffe6cc;strokeColor=#d79b00;" parent="1" vertex="1">
          <mxGeometry x="-990" y="470" width="290" height="70" as="geometry" />
        </mxCell>
        <mxCell id="hF90CGsqE_X16s34exra-13" value="&lt;span style=&quot;font-size: 27px;&quot;&gt;t-Test&amp;nbsp;&lt;/span&gt;&lt;div&gt;&lt;span style=&quot;font-size: 27px;&quot;&gt;(dependent samples)&lt;/span&gt;&lt;/div&gt;" style="rounded=0;whiteSpace=wrap;html=1;sketch=1;curveFitting=1;jiggle=2;fillColor=#ffe6cc;strokeColor=#d79b00;" parent="1" vertex="1">
          <mxGeometry x="-470" y="470" width="280" height="70" as="geometry" />
        </mxCell>
        <mxCell id="hF90CGsqE_X16s34exra-14" style="edgeStyle=orthogonalEdgeStyle;rounded=0;orthogonalLoop=1;jettySize=auto;html=1;" parent="1" source="hF90CGsqE_X16s34exra-16" target="hF90CGsqE_X16s34exra-22" edge="1">
          <mxGeometry relative="1" as="geometry" />
        </mxCell>
        <mxCell id="hF90CGsqE_X16s34exra-15" style="edgeStyle=orthogonalEdgeStyle;rounded=0;orthogonalLoop=1;jettySize=auto;html=1;" parent="1" source="hF90CGsqE_X16s34exra-16" target="hF90CGsqE_X16s34exra-23" edge="1">
          <mxGeometry relative="1" as="geometry" />
        </mxCell>
        <mxCell id="hF90CGsqE_X16s34exra-16" value="&lt;span style=&quot;font-size: 27px;&quot;&gt;ANOVA&lt;/span&gt;" style="rounded=0;whiteSpace=wrap;html=1;sketch=1;curveFitting=1;jiggle=2;fillColor=#ffe6cc;strokeColor=#d79b00;" parent="1" vertex="1">
          <mxGeometry x="-760" y="620" width="290" height="70" as="geometry" />
        </mxCell>
        <mxCell id="hF90CGsqE_X16s34exra-17" value="&lt;span style=&quot;font-size: 27px;&quot;&gt;Repeated Measures ANOVA&lt;/span&gt;" style="rounded=0;whiteSpace=wrap;html=1;sketch=1;curveFitting=1;jiggle=2;fillColor=#ffe6cc;strokeColor=#d79b00;" parent="1" vertex="1">
          <mxGeometry x="-220" y="620" width="290" height="70" as="geometry" />
        </mxCell>
        <mxCell id="hF90CGsqE_X16s34exra-18" value="&lt;font style=&quot;font-size: 27px;&quot;&gt;Binomial Test&lt;/font&gt;" style="ellipse;shape=cloud;whiteSpace=wrap;html=1;sketch=1;curveFitting=1;jiggle=2;fillColor=#e1d5e7;strokeColor=#9673a6;" parent="1" vertex="1">
          <mxGeometry x="-140" y="140" width="240" height="90" as="geometry" />
        </mxCell>
        <mxCell id="hF90CGsqE_X16s34exra-19" value="&lt;font style=&quot;font-size: 27px;&quot;&gt;Chi² Test&lt;/font&gt;" style="ellipse;shape=cloud;whiteSpace=wrap;html=1;sketch=1;curveFitting=1;jiggle=2;fillColor=#e1d5e7;strokeColor=#9673a6;" parent="1" vertex="1">
          <mxGeometry x="100" y="140" width="240" height="90" as="geometry" />
        </mxCell>
        <mxCell id="hF90CGsqE_X16s34exra-21" value="&lt;span style=&quot;font-size: 27px;&quot;&gt;Levene Test&lt;/span&gt;" style="rounded=0;whiteSpace=wrap;html=1;sketch=1;curveFitting=1;jiggle=2;fillColor=#fff2cc;strokeColor=#d6b656;" parent="1" vertex="1">
          <mxGeometry x="-1100" y="620" width="290" height="70" as="geometry" />
        </mxCell>
        <mxCell id="hF90CGsqE_X16s34exra-22" value="&lt;span style=&quot;font-size: 27px;&quot;&gt;one-way ANOVA&lt;/span&gt;" style="rounded=0;whiteSpace=wrap;html=1;sketch=1;curveFitting=1;jiggle=2;fillColor=#f8cecc;strokeColor=#b85450;" parent="1" vertex="1">
          <mxGeometry x="-925" y="760" width="290" height="70" as="geometry" />
        </mxCell>
        <mxCell id="hF90CGsqE_X16s34exra-23" value="&lt;span style=&quot;font-size: 27px;&quot;&gt;factorial ANOVA&lt;/span&gt;" style="rounded=0;whiteSpace=wrap;html=1;sketch=1;curveFitting=1;jiggle=2;fillColor=#f8cecc;strokeColor=#b85450;" parent="1" vertex="1">
          <mxGeometry x="-595" y="760" width="290" height="70" as="geometry" />
        </mxCell>
        <mxCell id="hF90CGsqE_X16s34exra-24" value="" style="endArrow=none;dashed=1;html=1;dashPattern=1 3;strokeWidth=2;rounded=0;exitX=1;exitY=0.5;exitDx=0;exitDy=0;entryX=0;entryY=0.5;entryDx=0;entryDy=0;" parent="1" source="hF90CGsqE_X16s34exra-21" target="hF90CGsqE_X16s34exra-16" edge="1">
          <mxGeometry width="50" height="50" relative="1" as="geometry">
            <mxPoint x="-360" y="690" as="sourcePoint" />
            <mxPoint x="-310" y="640" as="targetPoint" />
          </mxGeometry>
        </mxCell>
        <mxCell id="hF90CGsqE_X16s34exra-25" style="edgeStyle=orthogonalEdgeStyle;rounded=0;orthogonalLoop=1;jettySize=auto;html=1;entryX=0.552;entryY=0.094;entryDx=0;entryDy=0;entryPerimeter=0;" parent="1" source="hF90CGsqE_X16s34exra-7" target="hF90CGsqE_X16s34exra-18" edge="1">
          <mxGeometry relative="1" as="geometry" />
        </mxCell>
        <mxCell id="hF90CGsqE_X16s34exra-26" style="edgeStyle=orthogonalEdgeStyle;rounded=0;orthogonalLoop=1;jettySize=auto;html=1;entryX=0.473;entryY=0.11;entryDx=0;entryDy=0;entryPerimeter=0;" parent="1" source="hF90CGsqE_X16s34exra-7" target="hF90CGsqE_X16s34exra-19" edge="1">
          <mxGeometry relative="1" as="geometry" />
        </mxCell>
        <mxCell id="WhQZ94ygNFQVjO_5pYXe-1" value="" style="endArrow=none;html=1;rounded=0;entryX=0.5;entryY=1;entryDx=0;entryDy=0;exitX=0.5;exitY=0;exitDx=0;exitDy=0;" edge="1" parent="1" source="hF90CGsqE_X16s34exra-6" target="hF90CGsqE_X16s34exra-3">
          <mxGeometry width="50" height="50" relative="1" as="geometry">
            <mxPoint x="-230" y="830" as="sourcePoint" />
            <mxPoint x="-180" y="780" as="targetPoint" />
          </mxGeometry>
        </mxCell>
        <mxCell id="WhQZ94ygNFQVjO_5pYXe-2" value="" style="endArrow=none;html=1;rounded=0;entryX=0.5;entryY=1;entryDx=0;entryDy=0;exitX=0.5;exitY=0;exitDx=0;exitDy=0;" edge="1" parent="1" source="hF90CGsqE_X16s34exra-11" target="hF90CGsqE_X16s34exra-3">
          <mxGeometry width="50" height="50" relative="1" as="geometry">
            <mxPoint x="-450" y="360" as="sourcePoint" />
            <mxPoint x="-70" y="250" as="targetPoint" />
          </mxGeometry>
        </mxCell>
        <mxCell id="WhQZ94ygNFQVjO_5pYXe-3" value="" style="endArrow=classic;html=1;rounded=0;exitX=0.5;exitY=1;exitDx=0;exitDy=0;entryX=0.5;entryY=0;entryDx=0;entryDy=0;" edge="1" parent="1" source="hF90CGsqE_X16s34exra-6" target="hF90CGsqE_X16s34exra-16">
          <mxGeometry width="50" height="50" relative="1" as="geometry">
            <mxPoint x="-230" y="830" as="sourcePoint" />
            <mxPoint x="-160" y="660" as="targetPoint" />
          </mxGeometry>
        </mxCell>
        <mxCell id="WhQZ94ygNFQVjO_5pYXe-4" value="" style="endArrow=classic;html=1;rounded=0;exitX=0.5;exitY=1;exitDx=0;exitDy=0;entryX=0.5;entryY=0;entryDx=0;entryDy=0;" edge="1" parent="1" source="hF90CGsqE_X16s34exra-11" target="hF90CGsqE_X16s34exra-17">
          <mxGeometry width="50" height="50" relative="1" as="geometry">
            <mxPoint x="-192.86" y="510" as="sourcePoint" />
            <mxPoint x="-192.86" y="720" as="targetPoint" />
          </mxGeometry>
        </mxCell>
      </root>
    </mxGraphModel>
  </diagram>
</mxfile>
